<mxfile host="app.diagrams.net" modified="2023-12-07T20:10:07.946Z" agent="Mozilla/5.0 (Windows NT 10.0; Win64; x64) AppleWebKit/537.36 (KHTML, like Gecko) Chrome/119.0.0.0 Safari/537.36" etag="Vv5h5KnPH8dgmDxYb422" version="22.1.7" type="device">
  <diagram name="Página-1" id="tgN0ETKRqyT6g0v3geVg">
    <mxGraphModel dx="880" dy="446" grid="1" gridSize="10" guides="1" tooltips="1" connect="1" arrows="1" fold="1" page="1" pageScale="1" pageWidth="827" pageHeight="1169" math="0" shadow="0">
      <root>
        <mxCell id="0" />
        <mxCell id="1" parent="0" />
        <mxCell id="zKEwTaxTWjZ0Yh_OXf3S-2" value="Pessoa" style="swimlane;fontStyle=0;childLayout=stackLayout;horizontal=1;startSize=30;horizontalStack=0;resizeParent=1;resizeParentMax=0;resizeLast=0;collapsible=1;marginBottom=0;whiteSpace=wrap;html=1;" vertex="1" parent="1">
          <mxGeometry x="40" y="80" width="140" height="90" as="geometry" />
        </mxCell>
        <mxCell id="zKEwTaxTWjZ0Yh_OXf3S-3" value="-nome" style="text;strokeColor=none;fillColor=none;align=left;verticalAlign=middle;spacingLeft=4;spacingRight=4;overflow=hidden;points=[[0,0.5],[1,0.5]];portConstraint=eastwest;rotatable=0;whiteSpace=wrap;html=1;" vertex="1" parent="zKEwTaxTWjZ0Yh_OXf3S-2">
          <mxGeometry y="30" width="140" height="30" as="geometry" />
        </mxCell>
        <mxCell id="zKEwTaxTWjZ0Yh_OXf3S-4" value="-tipo" style="text;strokeColor=none;fillColor=none;align=left;verticalAlign=middle;spacingLeft=4;spacingRight=4;overflow=hidden;points=[[0,0.5],[1,0.5]];portConstraint=eastwest;rotatable=0;whiteSpace=wrap;html=1;" vertex="1" parent="zKEwTaxTWjZ0Yh_OXf3S-2">
          <mxGeometry y="60" width="140" height="30" as="geometry" />
        </mxCell>
        <mxCell id="zKEwTaxTWjZ0Yh_OXf3S-6" value="Parte" style="swimlane;fontStyle=0;childLayout=stackLayout;horizontal=1;startSize=30;horizontalStack=0;resizeParent=1;resizeParentMax=0;resizeLast=0;collapsible=1;marginBottom=0;whiteSpace=wrap;html=1;" vertex="1" parent="1">
          <mxGeometry x="320" y="80" width="140" height="90" as="geometry" />
        </mxCell>
        <mxCell id="zKEwTaxTWjZ0Yh_OXf3S-7" value="&amp;nbsp;-Pessoa" style="text;strokeColor=none;fillColor=none;align=left;verticalAlign=middle;spacingLeft=4;spacingRight=4;overflow=hidden;points=[[0,0.5],[1,0.5]];portConstraint=eastwest;rotatable=0;whiteSpace=wrap;html=1;" vertex="1" parent="zKEwTaxTWjZ0Yh_OXf3S-6">
          <mxGeometry y="30" width="140" height="30" as="geometry" />
        </mxCell>
        <mxCell id="zKEwTaxTWjZ0Yh_OXf3S-8" value="-advogados" style="text;strokeColor=none;fillColor=none;align=left;verticalAlign=middle;spacingLeft=4;spacingRight=4;overflow=hidden;points=[[0,0.5],[1,0.5]];portConstraint=eastwest;rotatable=0;whiteSpace=wrap;html=1;" vertex="1" parent="zKEwTaxTWjZ0Yh_OXf3S-6">
          <mxGeometry y="60" width="140" height="30" as="geometry" />
        </mxCell>
        <mxCell id="zKEwTaxTWjZ0Yh_OXf3S-53" style="edgeStyle=orthogonalEdgeStyle;rounded=0;orthogonalLoop=1;jettySize=auto;html=1;entryX=0.5;entryY=0;entryDx=0;entryDy=0;" edge="1" parent="1" source="zKEwTaxTWjZ0Yh_OXf3S-10" target="zKEwTaxTWjZ0Yh_OXf3S-18">
          <mxGeometry relative="1" as="geometry" />
        </mxCell>
        <mxCell id="zKEwTaxTWjZ0Yh_OXf3S-10" value="Advogado" style="swimlane;fontStyle=0;childLayout=stackLayout;horizontal=1;startSize=30;horizontalStack=0;resizeParent=1;resizeParentMax=0;resizeLast=0;collapsible=1;marginBottom=0;whiteSpace=wrap;html=1;" vertex="1" parent="1">
          <mxGeometry x="40" y="210" width="140" height="90" as="geometry" />
        </mxCell>
        <mxCell id="zKEwTaxTWjZ0Yh_OXf3S-11" value="-nome" style="text;strokeColor=none;fillColor=none;align=left;verticalAlign=middle;spacingLeft=4;spacingRight=4;overflow=hidden;points=[[0,0.5],[1,0.5]];portConstraint=eastwest;rotatable=0;whiteSpace=wrap;html=1;" vertex="1" parent="zKEwTaxTWjZ0Yh_OXf3S-10">
          <mxGeometry y="30" width="140" height="30" as="geometry" />
        </mxCell>
        <mxCell id="zKEwTaxTWjZ0Yh_OXf3S-12" value="-Especialidade" style="text;strokeColor=none;fillColor=none;align=left;verticalAlign=middle;spacingLeft=4;spacingRight=4;overflow=hidden;points=[[0,0.5],[1,0.5]];portConstraint=eastwest;rotatable=0;whiteSpace=wrap;html=1;" vertex="1" parent="zKEwTaxTWjZ0Yh_OXf3S-10">
          <mxGeometry y="60" width="140" height="30" as="geometry" />
        </mxCell>
        <mxCell id="zKEwTaxTWjZ0Yh_OXf3S-14" value="DefensorPublico" style="swimlane;fontStyle=0;childLayout=stackLayout;horizontal=1;startSize=30;horizontalStack=0;resizeParent=1;resizeParentMax=0;resizeLast=0;collapsible=1;marginBottom=0;whiteSpace=wrap;html=1;" vertex="1" parent="1">
          <mxGeometry x="320" y="230" width="140" height="60" as="geometry" />
        </mxCell>
        <mxCell id="zKEwTaxTWjZ0Yh_OXf3S-15" value="-herda de advogado" style="text;strokeColor=none;fillColor=none;align=left;verticalAlign=middle;spacingLeft=4;spacingRight=4;overflow=hidden;points=[[0,0.5],[1,0.5]];portConstraint=eastwest;rotatable=0;whiteSpace=wrap;html=1;" vertex="1" parent="zKEwTaxTWjZ0Yh_OXf3S-14">
          <mxGeometry y="30" width="140" height="30" as="geometry" />
        </mxCell>
        <mxCell id="zKEwTaxTWjZ0Yh_OXf3S-18" value="Juiz&lt;br&gt;" style="swimlane;fontStyle=0;childLayout=stackLayout;horizontal=1;startSize=30;horizontalStack=0;resizeParent=1;resizeParentMax=0;resizeLast=0;collapsible=1;marginBottom=0;whiteSpace=wrap;html=1;" vertex="1" parent="1">
          <mxGeometry x="40" y="340" width="140" height="60" as="geometry" />
        </mxCell>
        <mxCell id="zKEwTaxTWjZ0Yh_OXf3S-19" value="-nome" style="text;strokeColor=none;fillColor=none;align=left;verticalAlign=middle;spacingLeft=4;spacingRight=4;overflow=hidden;points=[[0,0.5],[1,0.5]];portConstraint=eastwest;rotatable=0;whiteSpace=wrap;html=1;" vertex="1" parent="zKEwTaxTWjZ0Yh_OXf3S-18">
          <mxGeometry y="30" width="140" height="30" as="geometry" />
        </mxCell>
        <mxCell id="zKEwTaxTWjZ0Yh_OXf3S-55" style="edgeStyle=orthogonalEdgeStyle;rounded=0;orthogonalLoop=1;jettySize=auto;html=1;entryX=0.5;entryY=0;entryDx=0;entryDy=0;" edge="1" parent="1" source="zKEwTaxTWjZ0Yh_OXf3S-28" target="zKEwTaxTWjZ0Yh_OXf3S-32">
          <mxGeometry relative="1" as="geometry" />
        </mxCell>
        <mxCell id="zKEwTaxTWjZ0Yh_OXf3S-28" value="Processo" style="swimlane;fontStyle=0;childLayout=stackLayout;horizontal=1;startSize=30;horizontalStack=0;resizeParent=1;resizeParentMax=0;resizeLast=0;collapsible=1;marginBottom=0;whiteSpace=wrap;html=1;" vertex="1" parent="1">
          <mxGeometry x="40" y="440" width="150" height="160" as="geometry" />
        </mxCell>
        <mxCell id="zKEwTaxTWjZ0Yh_OXf3S-29" value="- número" style="text;strokeColor=none;fillColor=none;align=left;verticalAlign=middle;spacingLeft=4;spacingRight=4;overflow=hidden;points=[[0,0.5],[1,0.5]];portConstraint=eastwest;rotatable=0;whiteSpace=wrap;html=1;" vertex="1" parent="zKEwTaxTWjZ0Yh_OXf3S-28">
          <mxGeometry y="30" width="150" height="20" as="geometry" />
        </mxCell>
        <mxCell id="zKEwTaxTWjZ0Yh_OXf3S-31" value="-parteAutora&lt;br&gt;-parteRequerida&lt;br&gt;-advogados&lt;br&gt;-juizRelator&lt;br&gt;-juizRevisor&lt;br&gt;-juizProlator&lt;br&gt;-setorAtual&lt;br&gt;" style="text;strokeColor=none;fillColor=none;align=left;verticalAlign=middle;spacingLeft=4;spacingRight=4;overflow=hidden;points=[[0,0.5],[1,0.5]];portConstraint=eastwest;rotatable=0;whiteSpace=wrap;html=1;" vertex="1" parent="zKEwTaxTWjZ0Yh_OXf3S-28">
          <mxGeometry y="50" width="150" height="110" as="geometry" />
        </mxCell>
        <mxCell id="zKEwTaxTWjZ0Yh_OXf3S-32" value="Setor" style="swimlane;fontStyle=0;childLayout=stackLayout;horizontal=1;startSize=30;horizontalStack=0;resizeParent=1;resizeParentMax=0;resizeLast=0;collapsible=1;marginBottom=0;whiteSpace=wrap;html=1;" vertex="1" parent="1">
          <mxGeometry x="50" y="650" width="140" height="160" as="geometry" />
        </mxCell>
        <mxCell id="zKEwTaxTWjZ0Yh_OXf3S-33" value="-SECRETARIA" style="text;strokeColor=none;fillColor=none;align=left;verticalAlign=middle;spacingLeft=4;spacingRight=4;overflow=hidden;points=[[0,0.5],[1,0.5]];portConstraint=eastwest;rotatable=0;whiteSpace=wrap;html=1;" vertex="1" parent="zKEwTaxTWjZ0Yh_OXf3S-32">
          <mxGeometry y="30" width="140" height="20" as="geometry" />
        </mxCell>
        <mxCell id="zKEwTaxTWjZ0Yh_OXf3S-34" value="-DISTRIBUICAO" style="text;strokeColor=none;fillColor=none;align=left;verticalAlign=middle;spacingLeft=4;spacingRight=4;overflow=hidden;points=[[0,0.5],[1,0.5]];portConstraint=eastwest;rotatable=0;whiteSpace=wrap;html=1;" vertex="1" parent="zKEwTaxTWjZ0Yh_OXf3S-32">
          <mxGeometry y="50" width="140" height="20" as="geometry" />
        </mxCell>
        <mxCell id="zKEwTaxTWjZ0Yh_OXf3S-35" value="-GAB_RELATOR&lt;br&gt;-GAB_REVISOR&lt;br&gt;-PLENARIO&lt;br&gt;-GAB-PROLATOR&lt;br&gt;-EXECUCAO&lt;br&gt;-ARQUIVENTO&lt;br&gt;" style="text;strokeColor=none;fillColor=none;align=left;verticalAlign=middle;spacingLeft=4;spacingRight=4;overflow=hidden;points=[[0,0.5],[1,0.5]];portConstraint=eastwest;rotatable=0;whiteSpace=wrap;html=1;" vertex="1" parent="zKEwTaxTWjZ0Yh_OXf3S-32">
          <mxGeometry y="70" width="140" height="90" as="geometry" />
        </mxCell>
        <mxCell id="zKEwTaxTWjZ0Yh_OXf3S-57" style="edgeStyle=orthogonalEdgeStyle;rounded=0;orthogonalLoop=1;jettySize=auto;html=1;entryX=0.5;entryY=0;entryDx=0;entryDy=0;" edge="1" parent="1" source="zKEwTaxTWjZ0Yh_OXf3S-36" target="zKEwTaxTWjZ0Yh_OXf3S-40">
          <mxGeometry relative="1" as="geometry" />
        </mxCell>
        <mxCell id="zKEwTaxTWjZ0Yh_OXf3S-36" value="Julgamento" style="swimlane;fontStyle=0;childLayout=stackLayout;horizontal=1;startSize=30;horizontalStack=0;resizeParent=1;resizeParentMax=0;resizeLast=0;collapsible=1;marginBottom=0;whiteSpace=wrap;html=1;" vertex="1" parent="1">
          <mxGeometry x="60" y="860" width="140" height="100" as="geometry" />
        </mxCell>
        <mxCell id="zKEwTaxTWjZ0Yh_OXf3S-37" value="-processo" style="text;strokeColor=none;fillColor=none;align=left;verticalAlign=middle;spacingLeft=4;spacingRight=4;overflow=hidden;points=[[0,0.5],[1,0.5]];portConstraint=eastwest;rotatable=0;whiteSpace=wrap;html=1;" vertex="1" parent="zKEwTaxTWjZ0Yh_OXf3S-36">
          <mxGeometry y="30" width="140" height="20" as="geometry" />
        </mxCell>
        <mxCell id="zKEwTaxTWjZ0Yh_OXf3S-38" value="-juizRelator" style="text;strokeColor=none;fillColor=none;align=left;verticalAlign=middle;spacingLeft=4;spacingRight=4;overflow=hidden;points=[[0,0.5],[1,0.5]];portConstraint=eastwest;rotatable=0;whiteSpace=wrap;html=1;" vertex="1" parent="zKEwTaxTWjZ0Yh_OXf3S-36">
          <mxGeometry y="50" width="140" height="20" as="geometry" />
        </mxCell>
        <mxCell id="zKEwTaxTWjZ0Yh_OXf3S-39" value="-juizRevisor&lt;br&gt;-juizProlator&lt;br&gt;" style="text;strokeColor=none;fillColor=none;align=left;verticalAlign=middle;spacingLeft=4;spacingRight=4;overflow=hidden;points=[[0,0.5],[1,0.5]];portConstraint=eastwest;rotatable=0;whiteSpace=wrap;html=1;" vertex="1" parent="zKEwTaxTWjZ0Yh_OXf3S-36">
          <mxGeometry y="70" width="140" height="30" as="geometry" />
        </mxCell>
        <mxCell id="zKEwTaxTWjZ0Yh_OXf3S-40" value="TribunalDeJustica" style="swimlane;fontStyle=0;childLayout=stackLayout;horizontal=1;startSize=30;horizontalStack=0;resizeParent=1;resizeParentMax=0;resizeLast=0;collapsible=1;marginBottom=0;whiteSpace=wrap;html=1;" vertex="1" parent="1">
          <mxGeometry x="60" y="990" width="140" height="60" as="geometry" />
        </mxCell>
        <mxCell id="zKEwTaxTWjZ0Yh_OXf3S-41" value="-ProcessosemAnd." style="text;strokeColor=none;fillColor=none;align=left;verticalAlign=middle;spacingLeft=4;spacingRight=4;overflow=hidden;points=[[0,0.5],[1,0.5]];portConstraint=eastwest;rotatable=0;whiteSpace=wrap;html=1;" vertex="1" parent="zKEwTaxTWjZ0Yh_OXf3S-40">
          <mxGeometry y="30" width="140" height="30" as="geometry" />
        </mxCell>
        <mxCell id="zKEwTaxTWjZ0Yh_OXf3S-49" style="edgeStyle=orthogonalEdgeStyle;rounded=0;orthogonalLoop=1;jettySize=auto;html=1;entryX=0.5;entryY=1;entryDx=0;entryDy=0;entryPerimeter=0;" edge="1" parent="1" source="zKEwTaxTWjZ0Yh_OXf3S-14" target="zKEwTaxTWjZ0Yh_OXf3S-8">
          <mxGeometry relative="1" as="geometry" />
        </mxCell>
        <mxCell id="zKEwTaxTWjZ0Yh_OXf3S-50" value="1" style="endArrow=open;html=1;endSize=12;startArrow=diamondThin;startSize=14;startFill=1;edgeStyle=orthogonalEdgeStyle;align=left;verticalAlign=bottom;rounded=0;entryX=0.5;entryY=0;entryDx=0;entryDy=0;" edge="1" parent="1" target="zKEwTaxTWjZ0Yh_OXf3S-10">
          <mxGeometry x="-1" y="3" relative="1" as="geometry">
            <mxPoint x="80" y="170" as="sourcePoint" />
            <mxPoint x="240" y="170" as="targetPoint" />
          </mxGeometry>
        </mxCell>
        <mxCell id="zKEwTaxTWjZ0Yh_OXf3S-54" style="edgeStyle=orthogonalEdgeStyle;rounded=0;orthogonalLoop=1;jettySize=auto;html=1;entryX=0.453;entryY=-0.006;entryDx=0;entryDy=0;entryPerimeter=0;" edge="1" parent="1" source="zKEwTaxTWjZ0Yh_OXf3S-18" target="zKEwTaxTWjZ0Yh_OXf3S-28">
          <mxGeometry relative="1" as="geometry" />
        </mxCell>
        <mxCell id="zKEwTaxTWjZ0Yh_OXf3S-56" style="edgeStyle=orthogonalEdgeStyle;rounded=0;orthogonalLoop=1;jettySize=auto;html=1;entryX=0.443;entryY=-0.02;entryDx=0;entryDy=0;entryPerimeter=0;" edge="1" parent="1" source="zKEwTaxTWjZ0Yh_OXf3S-32" target="zKEwTaxTWjZ0Yh_OXf3S-36">
          <mxGeometry relative="1" as="geometry" />
        </mxCell>
      </root>
    </mxGraphModel>
  </diagram>
</mxfile>
